<?xml version="1.0" encoding="utf-8"?>
<!-- Generator: Adobe Illustrator 22.0.1, SVG Export Plug-In . SVG Version: 6.00 Build 0)  -->
<svg version="1.1" id="Capa_1" xmlns="http://www.w3.org/2000/svg" xmlns:xlink="http://www.w3.org/1999/xlink" x="0px" y="0px"
	 viewBox="0 0 535.5 535.5" style="enable-background:new 0 0 535.5 535.5;" xml:space="preserve">
<style type="text/css">
	.st0{fill:#C9C9C9;}
</style>
<g>
	<g>
		<path class="st0" d="M66.7,95.8c9,0,17.4,1.7,25.4,5.2c8,3.5,15,8.1,21.1,13.8c6.1,5.7,10.9,12.5,14.4,20.5
			c3.5,8,5.2,16.4,5.2,25.4c0,9-1.7,17.4-5.2,25.4c-3.5,8-8.3,14.9-14.4,20.8c-6.1,5.9-13.2,10.6-21.1,14.1s-16.4,5.2-25.4,5.2
			s-17.5-1.7-25.7-5.2s-15.3-8.2-21.4-14.1S8.7,194,5.2,186c-3.5-8-5.2-16.4-5.2-25.4s1.7-17.4,5.2-25.4c3.5-8,8.3-14.8,14.4-20.5
			S32.8,104.4,41,101C49.2,97.5,57.7,95.8,66.7,95.8z M268.1,95.8c9.4,0,18.1,1.7,26,5.2c8,3.5,14.9,8.1,20.8,13.8
			s10.6,12.5,14.1,20.5c3.5,8,5.2,16.4,5.2,25.4c0,9-1.7,17.4-5.2,25.4c-3.5,8-8.2,14.9-14.1,20.8s-12.9,10.6-20.8,14.1
			c-8,3.5-16.6,5.2-26,5.2c-9,0-17.5-1.7-25.7-5.2s-15.2-8.2-21.1-14.1S210.6,194,207.2,186c-3.5-8-5.2-16.4-5.2-25.4
			s1.7-17.4,5.2-25.4c3.5-8,8.2-14.8,14.1-20.5s13-10.3,21.1-13.8C250.5,97.5,259.1,95.8,268.1,95.8z M469.4,97.6
			c9,0,17.3,1.6,25.1,4.9s14.5,7.8,20.2,13.5c5.7,5.7,10.2,12.4,13.5,20.2s4.9,15.9,4.9,24.5c0,8.6-1.6,16.7-4.9,24.5
			c-3.3,7.8-7.8,14.5-13.5,20.2c-5.7,5.7-12.4,10.2-20.2,13.5c-7.8,3.3-16.1,4.9-25.1,4.9c-8.6,0-16.7-1.6-24.5-4.9
			c-7.8-3.3-14.6-7.8-20.5-13.5s-10.5-12.4-13.8-20.2c-3.3-7.8-4.9-15.9-4.9-24.5c0-8.6,1.6-16.7,4.9-24.5s7.9-14.5,13.8-20.2
			c5.9-5.7,12.8-10.2,20.5-13.5S460.8,97.6,469.4,97.6z M66.7,309.4c9,0,17.4,1.7,25.4,5.2c8,3.5,15,8.1,21.1,13.8
			s10.9,12.5,14.4,20.5c3.5,8,5.2,16.4,5.2,25.4c0,9-1.7,17.4-5.2,25.4c-3.5,8-8.3,14.9-14.4,20.8c-6.1,5.9-13.2,10.6-21.1,14.1
			c-8,3.5-16.4,5.2-25.4,5.2S49.2,438,41,434.5c-8.2-3.5-15.3-8.2-21.4-14.1c-6.1-5.9-10.9-12.9-14.4-20.8S0,383.2,0,374.2
			c0-9,1.7-17.4,5.2-25.4s8.3-14.8,14.4-20.5S32.8,318,41,314.6C49.2,311.1,57.7,309.4,66.7,309.4z M268.1,309.4
			c9.4,0,18.1,1.7,26,5.2c8,3.5,14.9,8.1,20.8,13.8s10.6,12.5,14.1,20.5c3.5,8,5.2,16.4,5.2,25.4c0,9-1.7,17.4-5.2,25.4
			c-3.5,8-8.2,14.9-14.1,20.8c-5.9,5.9-12.9,10.6-20.8,14.1c-8,3.5-16.6,5.2-26,5.2c-9,0-17.5-1.7-25.7-5.2
			c-8.2-3.5-15.2-8.2-21.1-14.1c-5.9-5.9-10.6-12.9-14.1-20.8s-5.2-16.4-5.2-25.4c0-9,1.7-17.4,5.2-25.4s8.2-14.8,14.1-20.5
			s13-10.3,21.1-13.8C250.5,311.1,259.1,309.4,268.1,309.4z M469.4,309.4c9.4,0,18.1,1.7,26,5.2c8,3.5,14.9,8.1,20.8,13.8
			c5.9,5.7,10.6,12.5,14.1,20.5c3.5,8,5.2,16.4,5.2,25.4c0,9-1.7,17.4-5.2,25.4c-3.5,8-8.2,14.9-14.1,20.8
			c-5.9,5.9-12.9,10.6-20.8,14.1c-8,3.5-16.6,5.2-26,5.2c-9,0-17.5-1.7-25.7-5.2c-8.2-3.5-15.2-8.2-21.1-14.1
			c-5.9-5.9-10.6-12.9-14.1-20.8c-3.5-8-5.2-16.4-5.2-25.4c0-9,1.7-17.4,5.2-25.4c3.5-8,8.2-14.8,14.1-20.5s13-10.3,21.1-13.8
			C451.9,311.1,460.4,309.4,469.4,309.4z"/>
	</g>
</g>
</svg>
