<?xml version="1.0" encoding="iso-8859-1"?>
<!-- Generator: Adobe Illustrator 19.0.0, SVG Export Plug-In . SVG Version: 6.00 Build 0)  -->
<svg version="1.1" id="Layer_1" xmlns="http://www.w3.org/2000/svg" xmlns:xlink="http://www.w3.org/1999/xlink" x="0px" y="0px"
	 viewBox="0 0 512 512" style="enable-background:new 0 0 512 512;" xml:space="preserve" fill="rgb(201, 201, 201)">
<g>
	<g>
		<g>
			<path d="M368.404,361.413h-54.52V207.682c0-9.864-7.997-17.861-17.861-17.861h-80.05c-9.864,0-17.861,7.997-17.861,17.861
				v153.731h-54.52c-15.788,0-23.802,19.073-12.766,30.352l112.405,114.868c6.995,7.148,18.521,7.162,25.53,0l112.405-114.868
				C392.21,380.481,384.183,361.413,368.404,361.413z"/>
			<path d="M401.439,71.31L335.36,5.231C332.01,1.881,327.468,0,322.731,0H123.189c-9.864,0-17.861,7.997-17.861,17.861v265.621
				c0,9.864,7.997,17.861,17.861,17.861h42.531c3.288,0,5.954-2.665,5.954-5.953V177.915c0-6.576,5.331-11.907,11.907-11.907
				h144.838c6.576,0,11.907,5.331,11.907,11.907v117.474c0,3.289,2.666,5.953,5.953,5.953h42.531
				c9.864,0,17.861-7.997,17.861-17.861V83.939C406.67,79.202,404.788,74.659,401.439,71.31z M298.815,94.206h-85.632
				c-6.576,0-11.907-5.331-11.907-11.907c0-6.576,5.331-11.907,11.907-11.907h85.632c6.576,0,11.907,5.331,11.907,11.907
				C310.722,88.875,305.391,94.206,298.815,94.206z"/>
		</g>
	</g>
</g>
<g>
</g>
<g>
</g>
<g>
</g>
<g>
</g>
<g>
</g>
<g>
</g>
<g>
</g>
<g>
</g>
<g>
</g>
<g>
</g>
<g>
</g>
<g>
</g>
<g>
</g>
<g>
</g>
<g>
</g>
</svg>
