<?xml version="1.0" encoding="iso-8859-1"?>
<!-- Generator: Adobe Illustrator 19.0.0, SVG Export Plug-In . SVG Version: 6.00 Build 0)  -->
<svg version="1.1" id="Layer_1" xmlns="http://www.w3.org/2000/svg" xmlns:xlink="http://www.w3.org/1999/xlink" x="0px" y="0px"
	 viewBox="0 0 512 512" style="enable-background:new 0 0 512 512;" xml:space="preserve">
<g>
	<g>
		<path fill="rgb(201, 201, 201)" d="M209.048,86.023h-79.371V69.254c0-9.261-7.508-16.769-16.769-16.769c-9.261,0-16.769,7.508-16.769,16.769v16.769H16.769
			C7.508,86.023,0,93.531,0,102.791c0,9.261,7.508,16.769,16.769,16.769h192.279c9.261,0,16.769-7.508,16.769-16.769
			C225.817,93.531,218.309,86.023,209.048,86.023z"/>
	</g>
</g>
<g>
	<g>
		<path fill="rgb(201, 201, 201)" d="M495.231,129.621H302.952c-9.261,0-16.769,7.508-16.769,16.769c0,9.261,7.508,16.769,16.769,16.769h79.371v32.323
			l-34.604,4.046c-9.737,1.139-18.448,6.001-24.528,13.692c-0.359,0.455-0.705,0.917-1.041,1.384
			c-19.189-13.199-42.411-20.937-67.411-20.937c-24.278,0-46.879,7.299-65.739,19.809c-0.066-0.085-0.126-0.172-0.192-0.256
			c-6.08-7.69-14.791-12.553-24.529-13.692l-34.602-4.046v-32.323h79.371c9.261,0,16.769-7.508,16.769-16.769
			c0-9.261-7.508-16.769-16.769-16.769H16.769C7.508,129.621,0,137.129,0,146.39c0,9.261,7.508,16.769,16.769,16.769H96.14v28.401
			l-27.277-3.189c-20.113-2.355-38.368,12.091-40.716,32.192l-1.188,10.163c-1.139,9.738,1.583,19.335,7.662,27.026
			c6.08,7.69,14.792,12.553,24.529,13.691l36.99,4.326V410.74l-30.24,16.926c-8.081,4.523-10.966,14.742-6.442,22.823
			c4.523,8.081,14.743,10.966,22.823,6.443l17.33-9.7c3.065,3.995,7.873,6.582,13.299,6.582c5.518,0,10.399-2.677,13.454-6.79
			l17.704,9.911c2.592,1.451,5.403,2.141,8.176,2.141c5.872,0,11.575-3.092,14.647-8.58c4.524-8.081,1.641-18.299-6.44-22.823
			l-30.773-17.23V279.691l10.19,1.192c-2.847,10.198-4.375,20.941-4.375,32.035c0,43.926,23.876,82.376,59.329,103.067
			L176.6,429.149c-7.507,5.424-9.196,15.906-3.772,23.412c5.423,7.507,15.904,9.196,23.412,3.772l36.321-26.243
			c7.189,1.358,14.602,2.077,22.18,2.077c8.622,0,17.03-0.928,25.138-2.675l37.15,26.844c2.969,2.145,6.404,3.178,9.807,3.178
			c5.199,0,10.327-2.411,13.605-6.949c1.514-2.095,2.454-4.422,2.888-6.806c0.341,1.619,0.93,3.215,1.781,4.734
			c3.073,5.489,8.773,8.58,14.647,8.58c2.772,0,5.585-0.69,8.176-2.141l17.704-9.911c3.056,4.114,7.936,6.79,13.454,6.79
			c5.425,0,10.233-2.587,13.299-6.582l17.33,9.7c8.08,4.524,18.299,1.64,22.823-6.443c4.523-8.081,1.639-18.299-6.443-22.823
			l-30.24-16.924V275.769l36.989-4.325c9.737-1.138,18.449-6.001,24.529-13.691c6.08-7.691,8.801-17.288,7.662-27.025l-1.188-10.164
			c-2.35-20.101-20.614-34.54-40.717-32.192l-27.275,3.188v-28.401h79.371c9.261,0,16.769-7.508,16.769-16.769
			C512,137.129,504.492,129.621,495.231,129.621z M163.161,236.351l-0.037,0.32c-3.206,3.847-6.179,7.895-8.888,12.126
			l-91.191-10.663c-1.078-0.126-1.746-0.712-2.116-1.18c-0.371-0.47-0.787-1.254-0.661-2.332l1.188-10.164
			c0.188-1.609,1.559-2.797,3.142-2.797c0.122,0,0.246,0.007,0.37,0.021l95.415,11.157
			C162.118,233.042,163.365,234.617,163.161,236.351z M254.74,398.629c-47.262,0-85.713-38.451-85.713-85.713
			c0-47.263,38.451-85.713,85.713-85.713c47.262,0,85.713,38.451,85.713,85.713C340.453,360.179,302.002,398.629,254.74,398.629z
			 M382.323,410.443l-30.774,17.228c-4.542,2.543-7.442,6.885-8.307,11.635c-0.826-3.944-3.049-7.607-6.572-10.153l-19.934-14.404
			c34.307-20.964,57.253-58.767,57.253-101.832c0-10.991-1.501-21.636-4.298-31.75l12.632-1.477V410.443z M447.032,221.681
			c0.124-0.015,0.248-0.021,0.37-0.021c1.582-0.001,2.953,1.187,3.141,2.797l1.188,10.165c0.126,1.077-0.29,1.861-0.661,2.331
			c-0.371,0.468-1.039,1.054-2.116,1.18l-93.538,10.938c-1.908-2.998-3.948-5.903-6.108-8.711l-0.468-4.011
			c-0.202-1.733,1.043-3.308,2.777-3.511L447.032,221.681z"/>
	</g>
</g>
<g>
	<g>
		<path fill="rgb(201, 201, 201)" d="M495.231,86.023H415.86V69.254c0-9.261-7.508-16.769-16.769-16.769c-9.261,0-16.769,7.508-16.769,16.769v16.769h-79.371
			c-9.261,0-16.769,7.508-16.769,16.769c0,9.261,7.508,16.769,16.769,16.769h192.279c9.261,0,16.769-7.508,16.769-16.769
			C512,93.531,504.492,86.023,495.231,86.023z"/>
	</g>
</g>
<g>
</g>
<g>
</g>
<g>
</g>
<g>
</g>
<g>
</g>
<g>
</g>
<g>
</g>
<g>
</g>
<g>
</g>
<g>
</g>
<g>
</g>
<g>
</g>
<g>
</g>
<g>
</g>
<g>
</g>
</svg>
