<svg id="Capa_1" enable-background="new 0 0 482.24 482.24" height="512" viewBox="0 0 482.24 482.24" width="512" xmlns="http://www.w3.org/2000/svg" fill="rgb(201, 201, 201)"><path d="m216.228 134.89 128.229-85.492v221.996l34.446 34.446v-288.617c0-6.358-3.498-12.194-9.099-15.188-5.584-2.977-12.396-2.641-17.677.858l-150.666 100.444h-25.061l33.476 33.476c2.198-.439 4.473-.67 6.352-1.923z"/><path d="m482.24 457.886-457.886-457.886-24.354 24.355 103.337 103.337v233.988c0 9.52 7.703 17.223 17.223 17.223h80.9l150.666 100.444c2.876 1.917 6.206 2.893 9.553 2.893 2.792 0 5.584-.673 8.124-2.035 5.601-2.994 9.099-8.83 9.099-15.188v-61.76l78.983 78.983 24.354-24.354zm-137.783-25.043-128.229-85.492c-2.826-1.884-6.156-2.893-9.553-2.893h-68.891v-182.32l206.674 206.674c-.001 0-.001 64.031-.001 64.031z"/></svg>