<svg id="Capa_1" enable-background="new 0 0 437.499 437.499" height="512" viewBox="0 0 437.499 437.499" width="512" xmlns="http://www.w3.org/2000/svg" fill="rgb(201, 201, 201)"><path d="m328.126 437.499h-62.492c-4.638 0-9.032-2.06-12.007-5.615l-73.416-88.135h-70.838c-4.135 0-8.117-1.617-11.046-4.547s-4.577-6.897-4.577-11.047l.015-218.795c0-4.15 1.648-8.118 4.577-11.047 2.929-2.93 6.911-4.562 11.046-4.562h70.807l73.431-88.135c2.976-3.556 7.37-5.616 12.008-5.616h62.492c8.635 0 15.623 6.989 15.623 15.625v406.249c0 8.637-6.987 15.625-15.623 15.625zm-55.169-31.25h39.546v-374.999h-39.546l-73.431 88.135c-2.975 3.555-7.369 5.615-12.007 5.615l-62.519-.016-.004 187.545 62.523-.031c4.638 0 9.032 2.06 12.007 5.615 0 .001 73.431 88.136 73.431 88.136z"/></svg>