<svg height="100%" viewBox="0 -48 384 384" width="100%" xmlns="http://www.w3.org/2000/svg"><path fill="rgb(201, 201, 201)" d="m336 0h-288c-26.472656 0-48 21.527344-48 48v192c0 26.472656 21.527344 48 48 48h288c26.472656 0 48-21.527344 48-48v-192c0-26.472656-21.527344-48-48-48zm-288 32h288c8.824219 0 16 7.175781 16 16v16h-320v-16c0-8.824219 7.175781-16 16-16zm224 160v64h-64v-64c8.832031 0 16-7.167969 16-16v-80h32v80c0 8.832031 7.167969 16 16 16zm-144-16v-80h32v80c0 8.832031 7.167969 16 16 16v64h-64v-64c8.832031 0 16-7.167969 16-16zm-96 64v-144h32v80c0 8.832031 7.167969 16 16 16v64h-32c-8.824219 0-16-7.175781-16-16zm304 16h-32v-64c8.832031 0 16-7.167969 16-16v-80h32v144c0 8.824219-7.175781 16-16 16zm0 0"/></svg>