<svg version="1.1" id="function-timing_button" xmlns="http://www.w3.org/2000/svg"
				xmlns:xlink="http://www.w3.org/1999/xlink" x="0px" y="0px" viewBox="0 0 1417.3 1417.3"
				style="enable-background:new 0 0 1417.3 1417.3;" xml:space="preserve">
				<g>
					<g fill="rgb(201, 201, 201)">
						<path d="M300.2,468.3c43.6,0,82-0.3,120.4,0.2c10.1,0.1,20.5,0.8,29.9,3.9c19.8,6.6,31.3,27.9,27.6,48.3
                            c-3.5,19.9-20,35.1-40.8,35.3c-63.6,0.5-127.3,1.2-190.9-0.2c-52.9-1.2-99.2-48.6-100.5-102.7c-1.4-60.2-0.8-120.5-0.3-180.8
                            c0.2-25.9,20.2-45.6,44.4-45.6c23.8,0,43.9,19.8,44.5,45.8c0.8,35.4,0.3,71,0.3,106.4c0,6.4,0,12.8,0,21.6
                            c23.1-27.4,42.2-54.1,65.2-77.2C458.7,165,649.6,108.5,866.3,167.6c215.4,58.8,350.9,203.7,402.8,418.4
                            c37,152.9,6.7,297.4-78.9,430.2c-11.3,17.4-26.2,26.8-47.5,23.3c-20.4-3.3-34.1-16.3-36-35.6c-1.2-12,3.6-26.5,10.3-37.1
                            c53.5-84.6,79.2-176.2,77-276.2c-4.9-223.6-189-426.5-413.9-451.7C584.6,217,429.6,287.5,315.1,445.4
                            C310.8,451.2,307.1,457.5,300.2,468.3z" />
						<path d="M713.6,1271.1c-279.7,0.3-516.3-200.2-561-476c-4.2-25.7-6-51.8-7-77.8c-1.2-31.6,16.1-52,42.5-52.9
                            c27.3-1,45.8,19.7,46.6,51.7c3.4,138.6,57.4,254.6,161.3,346.9c152.1,135.2,375,158.3,553.5,59.2c34.9-19.3,59.6-16.6,74.3,8.1
                            c15.1,25.4,4.3,49.4-30.9,68.6C906.2,1246.8,812.5,1271,713.6,1271.1z" />
						<path d="M556.1,707.9c0-34.9-0.4-69.6,0.1-104.5c1-72.8,70.3-112.8,134.1-77.1c62.4,34.9,124.5,70.4,185.9,106.8
                            c60.5,35.8,61,114.2,0.8,149.9c-62.6,37.2-125.8,73.4-189.5,108.7c-60.8,33.6-129.5-6.4-131.3-75.5
                            C555.3,780.2,556.1,744,556.1,707.9z M830.2,708.5c-63.2-36.2-122.7-70.3-183.8-105.4c0,71.8,0,139.5,0,210.7
                            C707.8,778.6,767.1,744.7,830.2,708.5z" />
					</g>
				</g>
			</svg>